<?xml version="1.0" encoding="UTF-8" standalone="no"?>
<!-- Uploaded to: SVG Repo, www.svgrepo.com, Generator: SVG Repo Mixer Tools -->

<svg
   height="800px"
   width="800px"
   version="1.1"
   id="Layer_1"
   viewBox="0 0 473.935 473.935"
   xml:space="preserve"
   sodipodi:docname="water-temperature.svg"
   inkscape:version="1.3.2 (091e20e, 2023-11-25, custom)"
   xmlns:inkscape="http://www.inkscape.org/namespaces/inkscape"
   xmlns:sodipodi="http://sodipodi.sourceforge.net/DTD/sodipodi-0.dtd"
   xmlns="http://www.w3.org/2000/svg"
   xmlns:svg="http://www.w3.org/2000/svg"><defs
   id="defs7" /><sodipodi:namedview
   id="namedview7"
   pagecolor="#ffffff"
   bordercolor="#000000"
   borderopacity="0.25"
   inkscape:showpageshadow="2"
   inkscape:pageopacity="0.0"
   inkscape:pagecheckerboard="0"
   inkscape:deskcolor="#d1d1d1"
   showgrid="false"
   inkscape:zoom="1.02625"
   inkscape:cx="400.48721"
   inkscape:cy="400"
   inkscape:window-width="1920"
   inkscape:window-height="1017"
   inkscape:window-x="-8"
   inkscape:window-y="-8"
   inkscape:window-maximized="1"
   inkscape:current-layer="Layer_1" />
<circle
   style="fill:#00f0e1;fill-opacity:1"
   cx="236.967"
   cy="236.967"
   r="236.967"
   id="circle1" />
<g
   id="g2">
	<path
   style="fill:#DEA027;"
   d="M360.91,258.797l37.493,11.33c-2.522,10.518-6.481,19.296-11.899,26.35   c-5.414,7.05-12.138,12.374-20.172,15.959c-8.026,3.592-18.241,5.388-30.642,5.388c-15.042,0-27.341-2.189-36.875-6.559   c-9.538-4.374-17.773-12.067-24.696-23.076c-6.93-11.016-10.391-25.107-10.391-42.29c0-22.9,6.095-40.505,18.279-52.797   c12.183-12.31,29.422-18.454,51.704-18.454c17.444,0,31.147,3.525,41.13,10.574c9.976,7.053,17.392,17.882,22.237,32.49   l-37.777,8.404c-1.325-4.221-2.705-7.304-4.15-9.253c-2.398-3.274-5.321-5.792-8.793-7.558c-3.457-1.766-7.33-2.645-11.607-2.645   c-9.699,0-17.13,3.903-22.297,11.697c-3.903,5.785-5.852,14.874-5.852,27.263c0,15.345,2.331,25.856,6.986,31.551   c4.662,5.695,11.21,8.535,19.644,8.535c8.187,0,14.376-2.294,18.563-6.892C355.979,274.221,359.017,267.545,360.91,258.797z"
   id="path1" />
	<path
   style="fill:#DEA027;"
   d="M234.434,146.45c-15.925,0-28.838,12.909-28.838,28.838c0,15.933,12.913,28.842,28.838,28.842   s28.838-12.909,28.838-28.842C263.272,159.359,250.359,146.45,234.434,146.45z M234.434,194.094   c-10.383,0-18.802-8.419-18.802-18.806s8.419-18.806,18.802-18.806s18.81,8.419,18.81,18.806S244.821,194.094,234.434,194.094z"
   id="path2" />
</g>
<path
   style="fill:#FFFFFF;"
   d="M166.738,277.169V94.794c0-13.893-11.263-25.171-25.171-25.171  c-13.901,0-25.164,11.278-25.164,25.171v182.371c-24,9.908-40.898,33.508-40.898,61.066c0,36.475,29.583,66.046,66.058,66.046  c36.467,0,66.058-29.571,66.058-66.046C207.628,310.677,190.719,287.066,166.738,277.169z"
   id="path3" />
<g
   id="g4">
	<path
   style="fill:#E84849;"
   d="M158.723,319.68V195.374c0-9.467-7.682-17.152-17.152-17.152c-9.463,0-17.152,7.686-17.152,17.152   V319.68C108.07,326.434,175.071,326.426,158.723,319.68z"
   id="path4" />
	<circle
   style="fill:#E84849;"
   cx="141.619"
   cy="339.193"
   r="59.805"
   id="circle4" />
</g>
<g
   id="g7">
	<path
   style="fill:#F59C9E;"
   d="M124.463,100.572v9.145h21.998v-9.145C146.461,100.572,124.463,100.572,124.463,100.572z    M124.463,140.246h28.569v-9.152h-28.569L124.463,140.246L124.463,140.246z M124.463,170.775h21.998v-9.164h-21.998V170.775z"
   id="path5" />
	<path
   style="fill:#F59C9E;"
   d="M124.463,201.544h28.569v-9.149h-28.569L124.463,201.544L124.463,201.544z M124.463,263.934h28.569   v-9.149h-28.569L124.463,263.934L124.463,263.934z M124.463,232.073h21.998v-9.164h-21.998V232.073z"
   id="path6" />
	<path
   style="fill:#F59C9E;"
   d="M97.881,344.54c-8.666-8.655,0.842-32.636,9.5-41.291c8.658-8.659,29.62-16.879,38.278-8.217   C154.323,303.687,106.536,353.202,97.881,344.54z"
   id="path7" />
</g>
</svg>
