<?xml version="1.0" encoding="utf-8"?>
<!-- Generator: Adobe Illustrator 24.3.0, SVG Export Plug-In . SVG Version: 6.00 Build 0)  -->
<svg version="1.1" id="Capa_1" xmlns="http://www.w3.org/2000/svg" xmlns:xlink="http://www.w3.org/1999/xlink" x="0px" y="0px"
	 viewBox="0 0 134.1 120" style="enable-background:new 0 0 134.1 120;" xml:space="preserve">
<circle class="st0" cx="80.9" cy="30.9" r="10" fill="rgb(250, 73, 3)"/>
<circle class="st0" cx="63" cy="63.5" r="5.3" fill="rgb(250, 73, 3)"/>
<path class="st0" d="M61.4,71.3c0,0-8.9,6.4-19.1,1.6c0,0,7.2-3.4,6.3-7.2c-0.9-3.8-4.4-7.5-20.4-1.6c0,0,9.9-9.9,19.6-6.4
	S52.2,71.5,61.4,71.3z M14.4,107.3c0.3,0,0.6,0.1,0.9,0.2c0.2,0.1,0.4,0.3,0.6,0.5c0.2,0.2,0.2,0.4,0.3,0.7c0,0.2,0,0.5-0.2,0.8
		c-0.1,0.1-0.2,0.2-0.3,0.4c-0.2,0.2-0.3,0.2-0.5,0.3c-1.2,0.3-2.4,0.5-3.6,0.6c-1.2,0.1-2.5,0.1-3.7-0.1c-0.3,0-0.7-0.1-1.1-0.1
		c-0.4,0-0.8-0.1-1.1-0.3c-0.6-0.3-0.9-0.8-0.9-1.4V98.6c-0.2-0.1-0.4-0.3-0.5-0.5C4.1,98,4.1,97.8,4,97.5c0-0.2,0-0.4,0.1-0.6
		c0.1-0.2,0.2-0.4,0.5-0.5C5,96.1,5.4,96,5.9,95.9c0.5-0.1,0.9-0.2,1.4-0.2c1-0.1,1.9-0.2,2.9-0.2c1,0,1.9,0,2.9,0
		c0.3,0,0.6,0,1-0.1c0.4,0,0.7,0,1,0.1c0.3,0.1,0.6,0.3,0.8,0.5c0.2,0.2,0.3,0.5,0.4,0.8c0,0.3,0,0.5-0.2,0.8
		c-0.2,0.3-0.4,0.5-0.8,0.6c-0.5,0.2-0.9,0.2-1.5,0.2c-0.5,0-1,0-1.5,0c-0.7,0-1.4,0-2.1,0c-0.7,0-1.4,0.1-2.1,0.1v3.3
		c0.7,0,1.3,0,2,0c0.7,0,1.3-0.1,2-0.1c0.3,0,0.6,0,0.9-0.1c0.3,0,0.6,0,0.9,0c0.4,0,0.7,0.2,0.9,0.4c0.2,0.2,0.4,0.5,0.4,0.8
		c0,0.3,0,0.6-0.2,0.9c-0.2,0.3-0.4,0.5-0.8,0.6c-0.3,0.1-0.7,0.2-1.3,0.3c-0.5,0.1-1.1,0.1-1.7,0.1c-0.6,0-1.2,0-1.7,0
		c-0.6,0-1,0-1.4,0v3c1,0.1,2,0.1,3,0c1-0.1,2-0.2,3-0.5H14.4z M28.9,108c0.4,0.2,0.7,0.4,1,0.7c0.2,0.3,0.3,0.5,0.3,0.8c0,0.3-0.1,0.5-0.4,0.8c-0.2,0.2-0.6,0.4-1.1,0.6
		c-0.2,0-0.4,0.1-0.8,0.1c-0.3,0-0.8,0-1.4,0c-0.6,0-1.3,0-2.2,0c-0.9,0-2,0-3.3,0c-0.3,0-0.7,0-1,0c-0.3,0-0.6-0.1-0.9-0.3
		c-0.2-0.2-0.4-0.4-0.5-0.7c-0.1-0.3-0.2-0.7-0.2-1c0-0.4,0-0.7,0-1.1c0-0.4,0-0.7,0-0.9c0-0.5,0-1,0-1.7c0-0.6,0-1.3,0-1.9
		c0-0.6,0-1.3,0-1.9c0-0.6,0-1.2,0-1.7c0-0.8,0-1.5,0-2.1c0-0.5,0.1-0.9,0.1-1.2c0.1-0.3,0.2-0.5,0.3-0.6c0.1-0.1,0.3-0.3,0.6-0.3
		c0.2-0.1,0.5-0.1,0.7-0.1c0.3,0,0.5,0.1,0.7,0.2c0.2,0.1,0.4,0.2,0.6,0.4c0.2,0.2,0.2,0.4,0.2,0.6c0,1.9,0,3.8,0,5.7
		c0,1.9-0.1,3.8-0.1,5.7c1.2,0,2.3,0,3.4,0c1.1,0,2.3-0.1,3.5-0.1L28.9,108z M55.1,109.6c-0.1,0.4-0.2,0.7-0.4,0.9c-0.2,0.2-0.5,0.4-0.8,0.5c-0.3,0.1-0.6,0.1-0.9,0
		c-0.3-0.1-0.6-0.3-0.9-0.6c-0.2-0.3-0.4-0.5-0.4-0.9c0-0.3-0.1-0.6-0.2-0.9c-0.2-0.9-0.4-1.8-0.8-2.7c-1.1,0-2.3,0-3.4,0
		c-1.1,0-2.2,0-3.3,0c-0.2,0.4-0.3,0.8-0.4,1.3c-0.1,0.4-0.2,0.9-0.3,1.3c-0.1,0.3-0.2,0.7-0.2,1c-0.1,0.3-0.2,0.6-0.5,0.9
		c-0.3,0.3-0.6,0.5-1,0.5c-0.4,0-0.7,0-1-0.2c-0.3-0.1-0.5-0.4-0.7-0.7c-0.2-0.3-0.2-0.6-0.2-1c0.1-0.5,0.2-1,0.3-1.5
		c0.2-0.5,0.3-1,0.5-1.4c0.8-2.8,1.9-5.4,3.2-8c0.1-0.2,0.2-0.4,0.3-0.6c0.1-0.2,0.2-0.4,0.3-0.6c0.1-0.2,0.3-0.5,0.4-0.7
		c0.1-0.3,0.3-0.5,0.5-0.7c0.2-0.2,0.4-0.4,0.6-0.6c0.2-0.2,0.5-0.2,0.9-0.2c0.5,0,0.8,0.1,1.2,0.4c1.2,1.1,2.3,2.3,3.1,3.7
		c0.8,1.4,1.5,2.8,2.2,4.2c0.4,0,0.8,0,1.1,0c0.4,0,0.7,0.2,1,0.4c0.3,0.2,0.4,0.5,0.5,0.7c0,0.3,0,0.5-0.1,0.7
		c-0.1,0.2-0.3,0.4-0.5,0.6c-0.2,0.2-0.5,0.3-0.8,0.4c0.2,0.6,0.3,1.1,0.5,1.7c0.1,0.6,0.3,1.2,0.3,1.8V109.6z M49.5,103.1
		c-0.3-0.7-0.7-1.4-1.1-2.1c-0.4-0.7-0.8-1.4-1.3-2c-0.4,0.7-0.7,1.4-1,2.1c-0.3,0.7-0.6,1.4-0.9,2.1c0.9,0,1.6,0,2.3,0
		C48,103.1,48.7,103.1,49.5,103.1z M60.7,109.7c-0.1,0.4-0.2,0.7-0.6,1c-0.3,0.3-0.7,0.4-1.1,0.5c-0.4,0.1-0.7,0-1.1-0.1
		c-0.3-0.1-0.5-0.4-0.5-0.9c-0.1-1.8-0.1-3.7-0.1-5.7c0-2,0-3.9,0-5.9c-0.3-0.1-0.5-0.2-0.7-0.4c-0.1-0.2-0.2-0.4-0.3-0.6
		c0-0.2,0-0.5,0.1-0.7c0.1-0.2,0.2-0.4,0.4-0.6c0.2-0.2,0.5-0.4,0.8-0.5c0.3-0.2,0.7-0.3,1.1-0.4c0.4-0.1,0.8-0.3,1.2-0.3
		c0.4-0.1,0.7-0.2,1-0.2c1.2-0.2,2.3-0.2,3.5,0c1.2,0.2,2.2,0.6,3.1,1.2c0.9,0.6,1.6,1.3,2,2.2c0.4,0.9,0.5,1.9,0.1,3.1
		c-0.1,0.3-0.2,0.6-0.4,1c-0.2,0.3-0.4,0.6-0.6,0.9c-0.3,0.4-0.7,0.8-1.1,1.1c-0.4,0.3-0.9,0.6-1.4,0.9c0.3,0.3,0.7,0.7,1,1
		c0.3,0.4,0.7,0.7,1,1c0.1,0.1,0.4,0.3,0.6,0.5c0.3,0.2,0.6,0.5,0.8,0.8c0.3,0.3,0.5,0.5,0.7,0.8c0.2,0.3,0.3,0.5,0.3,0.7
		c0,0.3-0.1,0.6-0.3,0.8c-0.2,0.2-0.4,0.4-0.6,0.6c-0.2,0.1-0.5,0.2-0.8,0.2c-0.3,0-0.6-0.1-0.9-0.3c-0.3-0.2-0.6-0.5-0.9-0.8
		c-0.3-0.3-0.6-0.6-0.9-0.8c-0.6-0.6-1.2-1.2-1.8-1.7c-0.6-0.6-1.2-1.2-1.8-1.7c-0.4,0.1-0.7,0.1-1.1,0.1c-0.4,0-0.7,0.1-1.1,0.1
		v3.4V109.7z M65.6,98.1c-0.7-0.4-1.5-0.6-2.4-0.6c-0.9,0-1.7,0.1-2.5,0.3v5.4c0.8,0,1.6-0.1,2.4-0.3c0.8-0.1,1.5-0.4,2.2-0.9
		c0.4-0.3,0.7-0.6,0.9-0.9c0.2-0.3,0.4-0.7,0.4-1.1c0-0.4,0-0.7-0.2-1.1C66.3,98.6,66,98.3,65.6,98.1z M83.2,107.3c0.3,0,0.6,0.1,0.9,0.2c0.2,0.1,0.4,0.3,0.6,0.5c0.2,0.2,0.2,0.4,0.3,0.7c0,0.2,0,0.5-0.2,0.8
		c-0.1,0.1-0.2,0.2-0.3,0.4c-0.2,0.2-0.3,0.2-0.5,0.3c-1.2,0.3-2.4,0.5-3.6,0.6c-1.2,0.1-2.5,0.1-3.7-0.1c-0.3,0-0.7-0.1-1.1-0.1
		c-0.4,0-0.8-0.1-1.1-0.3c-0.6-0.3-0.9-0.8-0.9-1.4V98.6c-0.2-0.1-0.4-0.3-0.5-0.5c-0.1-0.2-0.2-0.4-0.2-0.6c0-0.2,0-0.4,0.1-0.6
		c0.1-0.2,0.2-0.4,0.5-0.5c0.4-0.3,0.8-0.4,1.3-0.5c0.5-0.1,0.9-0.2,1.4-0.2c1-0.1,1.9-0.2,2.9-0.2c1,0,1.9,0,2.9,0
		c0.3,0,0.6,0,1-0.1c0.4,0,0.7,0,1,0.1c0.3,0.1,0.6,0.3,0.8,0.5c0.2,0.2,0.3,0.5,0.4,0.8c0,0.3,0,0.5-0.2,0.8
		c-0.2,0.3-0.4,0.5-0.8,0.6c-0.5,0.2-0.9,0.2-1.5,0.2c-0.5,0-1,0-1.5,0c-0.7,0-1.4,0-2.1,0c-0.7,0-1.4,0.1-2.1,0.1v3.3
		c0.7,0,1.3,0,2,0c0.7,0,1.3-0.1,2-0.1c0.3,0,0.6,0,0.9-0.1c0.3,0,0.6,0,0.9,0c0.4,0,0.7,0.2,0.9,0.4c0.2,0.2,0.4,0.5,0.4,0.8
		c0,0.3,0,0.6-0.2,0.9c-0.2,0.3-0.4,0.5-0.8,0.6c-0.3,0.1-0.7,0.2-1.3,0.3c-0.5,0.1-1.1,0.1-1.7,0.1c-0.6,0-1.2,0-1.7,0
		c-0.6,0-1,0-1.4,0v3c1,0.1,2,0.1,3,0c1-0.1,2-0.2,3-0.5H83.2z M98.4,96.1c0.1-0.3,0.3-0.6,0.5-0.8c0.2-0.2,0.5-0.3,0.8-0.4c0.3-0.1,0.6,0,0.9,0c0.3,0.1,0.6,0.3,0.8,0.6
		c0.1,0.1,0.1,0.2,0.2,0.3c0.1,0.1,0.1,0.2,0.1,0.3c0,2.3,0,4.6,0,6.9c-0.1,2.3-0.2,4.6-0.3,6.9c0,0.4-0.1,0.7-0.4,0.9
		c-0.3,0.2-0.6,0.3-0.9,0.4c-0.3,0.1-0.7,0-1-0.1c-0.3-0.1-0.6-0.3-0.8-0.6c0,0,0,0,0,0v0c-1.2-1.7-2.4-3.4-3.8-4.9
		c-1.3-1.6-2.7-3.1-4.1-4.7v5.4c0,0.7,0,1.4,0,1.8c0,0.5,0,0.9,0,1.2c0,0.3,0,0.6-0.1,0.7c0,0.2-0.1,0.3-0.1,0.5
		c-0.2,0.4-0.4,0.6-0.8,0.8c-0.3,0.1-0.7,0.2-1,0.1c-0.3-0.1-0.6-0.2-0.9-0.5c-0.3-0.3-0.4-0.6-0.4-1c0-0.2,0-0.6,0-1.1
		c0-0.5,0-1,0-1.6c0-0.6,0-1.3,0-2s0-1.4,0-2.1c0-0.7,0-1.3,0-1.9c0-0.6,0-1.1,0-1.5c0-0.5,0-1.1,0-1.6c0-0.5,0-1.1,0-1.6
		c0-0.3,0.1-0.5,0.2-0.7c0.2-0.2,0.4-0.3,0.6-0.4c0.2-0.1,0.5-0.2,0.8-0.2c0.3,0,0.5,0,0.8,0.1c0.2,0.1,0.4,0.2,0.7,0.4
		c0.2,0.2,0.5,0.4,0.7,0.6c0.2,0.2,0.4,0.5,0.6,0.7c0.2,0.2,0.4,0.4,0.5,0.6c0.5,0.5,1,1.1,1.6,1.8c0.6,0.7,1.2,1.3,1.7,1.9
		c0.5,0.6,1,1.2,1.6,1.8c0.5,0.6,1,1.2,1.5,1.8c0.1-1.5,0.1-2.9,0.1-4.3c0-1.4,0-2.9,0-4.3L98.4,96.1z M118.7,109.6c-0.1,0.4-0.2,0.7-0.4,0.9c-0.2,0.2-0.5,0.4-0.8,0.5c-0.3,0.1-0.6,0.1-0.9,0
		c-0.3-0.1-0.6-0.3-0.9-0.6c-0.2-0.3-0.4-0.5-0.4-0.9c0-0.3-0.1-0.6-0.2-0.9c-0.2-0.9-0.4-1.8-0.8-2.7c-1.1,0-2.3,0-3.4,0
		c-1.1,0-2.2,0-3.3,0c-0.2,0.4-0.3,0.8-0.4,1.3c-0.1,0.4-0.2,0.9-0.3,1.3c-0.1,0.3-0.2,0.7-0.2,1c-0.1,0.3-0.2,0.6-0.5,0.9
		c-0.3,0.3-0.6,0.5-1,0.5c-0.4,0-0.7,0-1-0.2c-0.3-0.1-0.5-0.4-0.7-0.7c-0.2-0.3-0.2-0.6-0.2-1c0.1-0.5,0.2-1,0.3-1.5
		c0.2-0.5,0.3-1,0.5-1.4c0.8-2.8,1.9-5.4,3.2-8c0.1-0.2,0.2-0.4,0.3-0.6c0.1-0.2,0.2-0.4,0.3-0.6c0.1-0.2,0.3-0.5,0.4-0.7
		c0.1-0.3,0.3-0.5,0.5-0.7c0.2-0.2,0.4-0.4,0.6-0.6c0.2-0.2,0.5-0.2,0.9-0.2c0.5,0,0.8,0.1,1.2,0.4c1.2,1.1,2.3,2.3,3.1,3.7
		c0.8,1.4,1.5,2.8,2.2,4.2c0.4,0,0.8,0,1.1,0c0.4,0,0.7,0.2,1,0.4c0.3,0.2,0.4,0.5,0.5,0.7c0,0.3,0,0.5-0.1,0.7
		c-0.1,0.2-0.3,0.4-0.5,0.6c-0.2,0.2-0.5,0.3-0.8,0.4c0.2,0.6,0.3,1.1,0.5,1.7c0.1,0.6,0.3,1.2,0.3,1.8V109.6z M113.1,103.1
		c-0.3-0.7-0.7-1.4-1.1-2.1c-0.4-0.7-0.8-1.4-1.3-2c-0.4,0.7-0.7,1.4-1,2.1c-0.3,0.7-0.6,1.4-0.9,2.1c0.9,0,1.6,0,2.3,0
		C111.7,103.1,112.4,103.1,113.1,103.1z M131.1,108c0.4,0.2,0.7,0.4,1,0.7c0.2,0.3,0.3,0.5,0.3,0.8c0,0.3-0.1,0.5-0.4,0.8c-0.2,0.2-0.6,0.4-1.1,0.6
		c-0.2,0-0.4,0.1-0.8,0.1c-0.3,0-0.8,0-1.4,0c-0.6,0-1.3,0-2.2,0c-0.9,0-2,0-3.3,0c-0.3,0-0.7,0-1,0c-0.3,0-0.6-0.1-0.9-0.3
		c-0.2-0.2-0.4-0.4-0.5-0.7c-0.1-0.3-0.2-0.7-0.2-1c0-0.4,0-0.7,0-1.1c0-0.4,0-0.7,0-0.9c0-0.5,0-1,0-1.7c0-0.6,0-1.3,0-1.9
		c0-0.6,0-1.3,0-1.9c0-0.6,0-1.2,0-1.7c0-0.8,0-1.5,0-2.1c0-0.5,0.1-0.9,0.1-1.2c0.1-0.3,0.2-0.5,0.3-0.6c0.1-0.1,0.3-0.3,0.6-0.3
		c0.2-0.1,0.5-0.1,0.7-0.1c0.3,0,0.5,0.1,0.7,0.2c0.2,0.1,0.4,0.2,0.6,0.4c0.2,0.2,0.2,0.4,0.2,0.6c0,1.9,0,3.8,0,5.7
		c0,1.9-0.1,3.8-0.1,5.7c1.2,0,2.3,0,3.4,0c1.1,0,2.3-0.1,3.5-0.1L131.1,108z M47.6,115.4h-1.3v-0.8h3.6v0.8h-1.3v3.4h-1V115.4z M53.1,117.5h-2.4c0,0.2,0.1,0.4,0.3,0.5c0.2,0.1,0.4,0.2,0.6,0.2c0.2,0,0.3,0,0.4-0.1c0.1,0,0.2-0.1,0.4-0.2
		l0.5,0.5c-0.3,0.3-0.7,0.5-1.3,0.5c-0.4,0-0.7-0.1-1-0.2c-0.3-0.1-0.5-0.3-0.6-0.6c-0.2-0.3-0.2-0.5-0.2-0.9c0-0.3,0.1-0.6,0.2-0.8
		c0.1-0.3,0.4-0.4,0.6-0.6c0.3-0.1,0.6-0.2,0.9-0.2c0.3,0,0.6,0.1,0.9,0.2c0.3,0.1,0.5,0.3,0.6,0.6c0.1,0.3,0.2,0.5,0.2,0.9
		C53.1,117.2,53.1,117.3,53.1,117.5z M50.9,116.4c-0.1,0.1-0.2,0.3-0.3,0.5h1.6c0-0.2-0.1-0.4-0.3-0.5c-0.1-0.1-0.3-0.2-0.5-0.2
		C51.3,116.2,51.1,116.3,50.9,116.4z M54.4,118.6c-0.3-0.1-0.5-0.3-0.6-0.6c-0.2-0.3-0.2-0.5-0.2-0.9c0-0.3,0.1-0.6,0.2-0.9
		c0.2-0.3,0.4-0.4,0.6-0.6c0.3-0.1,0.6-0.2,0.9-0.2c0.3,0,0.6,0.1,0.9,0.2c0.3,0.1,0.4,0.3,0.6,0.6l-0.7,0.4
		c-0.2-0.3-0.4-0.4-0.7-0.4c-0.2,0-0.4,0.1-0.6,0.2c-0.2,0.2-0.2,0.4-0.2,0.6s0.1,0.5,0.2,0.6c0.2,0.2,0.4,0.2,0.6,0.2
		c0.3,0,0.6-0.1,0.7-0.4l0.7,0.4c-0.1,0.3-0.3,0.5-0.6,0.6c-0.3,0.1-0.5,0.2-0.9,0.2C55,118.8,54.6,118.8,54.4,118.6z M57.8,118.6c-0.3-0.1-0.5-0.3-0.6-0.6c-0.2-0.3-0.2-0.5-0.2-0.9c0-0.3,0.1-0.6,0.2-0.9
		c0.2-0.3,0.4-0.4,0.6-0.6c0.3-0.1,0.6-0.2,0.9-0.2s0.6,0.1,0.9,0.2c0.3,0.1,0.5,0.3,0.6,0.6c0.2,0.3,0.2,0.5,0.2,0.9
		c0,0.3-0.1,0.6-0.2,0.9c-0.2,0.3-0.4,0.4-0.6,0.6c-0.3,0.1-0.6,0.2-0.9,0.2S58.1,118.8,57.8,118.6z M59.3,117.8
		c0.2-0.2,0.2-0.4,0.2-0.6c0-0.3-0.1-0.5-0.2-0.6c-0.2-0.2-0.3-0.2-0.6-0.2c-0.2,0-0.4,0.1-0.6,0.2c-0.2,0.2-0.2,0.4-0.2,0.6
		c0,0.3,0.1,0.5,0.2,0.6c0.2,0.2,0.4,0.2,0.6,0.2C59,118.1,59.2,118,59.3,117.8z M63.7,118.1v0.7h-2.9v-0.6l1.6-1.9h-1.6v-0.7h2.8v0.6l-1.6,1.9H63.7z M66.7,115.9c0.3,0.2,0.4,0.6,0.4,1.1v1.8h-0.9v-0.4c-0.2,0.3-0.5,0.4-1,0.4c-0.2,0-0.5,0-0.6-0.1
		c-0.2-0.1-0.3-0.2-0.4-0.3c-0.1-0.1-0.1-0.3-0.1-0.5c0-0.3,0.1-0.5,0.3-0.7c0.2-0.2,0.6-0.3,1-0.3h0.7c0-0.2-0.1-0.4-0.2-0.5
		c-0.1-0.1-0.3-0.2-0.6-0.2c-0.2,0-0.3,0-0.5,0.1c-0.2,0.1-0.3,0.1-0.4,0.2l-0.3-0.6c0.2-0.1,0.4-0.2,0.6-0.3
		c0.2-0.1,0.5-0.1,0.8-0.1C66.1,115.5,66.5,115.7,66.7,115.9z M66,118.1c0.1-0.1,0.2-0.2,0.3-0.3v-0.3h-0.6c-0.4,0-0.6,0.1-0.6,0.4
		c0,0.1,0,0.2,0.1,0.3c0.1,0.1,0.2,0.1,0.4,0.1C65.7,118.2,65.8,118.2,66,118.1z M71.2,115.6v3.2h-0.9v-0.4c-0.1,0.1-0.3,0.2-0.4,0.3c-0.2,0.1-0.4,0.1-0.6,0.1c-0.4,0-0.8-0.1-1-0.4
		c-0.2-0.2-0.4-0.6-0.4-1.1v-1.8h0.9v1.7c0,0.5,0.2,0.8,0.6,0.8c0.2,0,0.4-0.1,0.5-0.2c0.1-0.1,0.2-0.4,0.2-0.6v-1.6H71.2z M74.1,118.6c-0.1,0.1-0.2,0.1-0.3,0.2c-0.1,0-0.3,0.1-0.4,0.1c-0.4,0-0.7-0.1-0.9-0.3
		c-0.2-0.2-0.3-0.5-0.3-0.9v-1.3h-0.5v-0.7h0.5v-0.8h0.9v0.8h0.8v0.7h-0.8v1.3c0,0.1,0,0.2,0.1,0.3c0.1,0.1,0.2,0.1,0.3,0.1
		c0.1,0,0.3,0,0.4-0.1L74.1,118.6z M74.7,114.4h0.9v4.4h-0.9V114.4z M78.9,115.9c0.3,0.2,0.4,0.6,0.4,1.1v1.8h-0.9v-0.4c-0.2,0.3-0.5,0.4-1,0.4c-0.2,0-0.5,0-0.6-0.1
		c-0.2-0.1-0.3-0.2-0.4-0.3c-0.1-0.1-0.1-0.3-0.1-0.5c0-0.3,0.1-0.5,0.3-0.7c0.2-0.2,0.6-0.3,1-0.3h0.7c0-0.2-0.1-0.4-0.2-0.5
		c-0.1-0.1-0.3-0.2-0.6-0.2c-0.2,0-0.3,0-0.5,0.1c-0.2,0.1-0.3,0.1-0.4,0.2l-0.3-0.6c0.2-0.1,0.4-0.2,0.6-0.3
		c0.2-0.1,0.5-0.1,0.8-0.1C78.2,115.5,78.6,115.7,78.9,115.9z M78.1,118.1c0.1-0.1,0.2-0.2,0.3-0.3v-0.3h-0.6
		c-0.4,0-0.6,0.1-0.6,0.4c0,0.1,0,0.2,0.1,0.3c0.1,0.1,0.2,0.1,0.4,0.1C77.8,118.2,78,118.2,78.1,118.1z M80.9,117.8c0.1,0.1,0.2,0.2,0.2,0.4c0,0.1,0,0.2,0,0.2c0,0.1-0.1,0.2-0.1,0.4l-0.3,0.9H80l0.3-0.9
		c-0.1,0-0.2-0.1-0.2-0.2c-0.1-0.1-0.1-0.2-0.1-0.3c0-0.2,0.1-0.3,0.2-0.4c0.1-0.1,0.2-0.2,0.4-0.2
		C80.7,117.7,80.8,117.7,80.9,117.8z M87.3,114.6v4.2h-1v-1.7h-1.9v1.7h-1v-4.2h1v1.6h1.9v-1.6H87.3z M91.5,115.6v2.7c0,0.6-0.2,1-0.5,1.3c-0.3,0.3-0.8,0.4-1.3,0.4c-0.3,0-0.6,0-0.9-0.1c-0.3-0.1-0.5-0.2-0.7-0.3
		l0.4-0.7c0.1,0.1,0.3,0.2,0.5,0.3c0.2,0.1,0.4,0.1,0.6,0.1c0.3,0,0.6-0.1,0.7-0.2c0.2-0.1,0.2-0.4,0.2-0.7v-0.1
		c-0.2,0.3-0.6,0.4-1,0.4c-0.3,0-0.6-0.1-0.8-0.2c-0.2-0.1-0.4-0.3-0.6-0.5c-0.1-0.2-0.2-0.5-0.2-0.8c0-0.3,0.1-0.6,0.2-0.8
		c0.1-0.2,0.3-0.4,0.6-0.5c0.2-0.1,0.5-0.2,0.8-0.2c0.5,0,0.8,0.2,1.1,0.5v-0.4H91.5z M90.3,117.7c0.2-0.1,0.2-0.3,0.2-0.6
		c0-0.2-0.1-0.4-0.2-0.6c-0.2-0.1-0.4-0.2-0.6-0.2c-0.2,0-0.4,0.1-0.6,0.2c-0.2,0.1-0.2,0.3-0.2,0.6c0,0.2,0.1,0.4,0.2,0.6
		c0.2,0.1,0.4,0.2,0.6,0.2C90,117.9,90.2,117.8,90.3,117.7z M93,118.6c-0.3-0.1-0.5-0.3-0.6-0.6c-0.2-0.3-0.2-0.5-0.2-0.9c0-0.3,0.1-0.6,0.2-0.9c0.2-0.3,0.4-0.4,0.6-0.6
		c0.3-0.1,0.6-0.2,0.9-0.2c0.3,0,0.6,0.1,0.9,0.2c0.3,0.1,0.5,0.3,0.6,0.6c0.2,0.3,0.2,0.5,0.2,0.9c0,0.3-0.1,0.6-0.2,0.9
		c-0.2,0.3-0.4,0.4-0.6,0.6c-0.3,0.1-0.6,0.2-0.9,0.2C93.5,118.8,93.2,118.8,93,118.6z M94.5,117.8c0.2-0.2,0.2-0.4,0.2-0.6
		c0-0.3-0.1-0.5-0.2-0.6c-0.2-0.2-0.3-0.2-0.6-0.2c-0.2,0-0.4,0.1-0.6,0.2c-0.2,0.2-0.2,0.4-0.2,0.6c0,0.3,0.1,0.5,0.2,0.6
		c0.2,0.2,0.4,0.2,0.6,0.2C94.1,118.1,94.3,118,94.5,117.8z M96.2,118.7c-0.1-0.1-0.2-0.3-0.2-0.4c0-0.2,0.1-0.3,0.2-0.4c0.1-0.1,0.2-0.2,0.4-0.2c0.2,0,0.3,0.1,0.4,0.2
		c0.1,0.1,0.2,0.2,0.2,0.4c0,0.2-0.1,0.3-0.2,0.4c-0.1,0.1-0.2,0.2-0.4,0.2C96.4,118.8,96.3,118.8,96.2,118.7z M130.4,74.1c-0.8,0.7-1.8,1.5-3,2.2v-2.1c0-0.3-0.2-0.5-0.5-0.5h-3l0.6-30.8l0.6-0.2c0.2-0.1,0.3-0.2,0.3-0.4
	c0-0.6,0.1-1.6,0.3-2c0.3-0.6,0.9-1.5,0.9-1.5c0.1-0.1,0.1-0.3,0-0.5c-0.1-0.2-0.2-0.2-0.4-0.2h-3v-4.2c0-0.3-0.2-0.5-0.5-0.5h-0.5
	V15.7l2.1-2.1c0.1-0.1,0.2-0.3,0.1-0.5c0-0.2-0.2-0.3-0.3-0.3l-0.9-0.2V9.1l1.1-1.1c0.1-0.1,0.2-0.3,0.1-0.5
	c-0.1-0.2-0.2-0.3-0.4-0.3h-2V3.3c0-0.3-0.2-0.5-0.5-0.5h-2.8C118.4,2,117-0.3,113.4,0c-4.3,0.3-5.7,3-5.7,3.1l0.8,0.4
	c0-0.1,1.2-2.3,4.9-2.6c3.6-0.3,4.5,2.4,4.5,2.5c0.1,0.2,0.2,0.3,0.5,0.3h2.7v3.9c0,0.3,0.2,0.5,0.5,0.5h1.4l-0.5,0.5
	c-0.1,0.1-0.1,0.2-0.1,0.3V13c0,0.2,0.1,0.4,0.4,0.5l0.4,0.1l-1.6,1.6c-0.1,0.1-0.1,0.2-0.1,0.3v18.2c0,0.3,0.2,0.5,0.5,0.5h0.5v4.2
	c0,0.3,0.2,0.5,0.5,0.5h2.6c-0.2,0.3-0.4,0.6-0.5,0.9c-0.3,0.5-0.3,1.5-0.4,2.1L124,42c-0.2,0.1-0.3,0.2-0.3,0.4L123,74.1
	c0,0.1,0,0.2,0.1,0.3c0.1,0.1,0.2,0.1,0.3,0.1h3v2.2c-2.3,1.3-5.2,2.2-8.5,2.2c-0.7,0-1.3-0.1-2-0.2V61.1c1.6-2.5,2.8-14.2,2.8-28.4
	c0-15.9-1.5-28.8-3.4-28.8s-3.4,12.9-3.4,28.8c0,14.1,1.2,25.9,2.8,28.4v17.5c-2.4-0.5-4.9-1.4-7.2-2.5v-15
	c1.6-2.5,2.8-14.2,2.8-28.4c0-15.9-1.5-28.8-3.4-28.8c-1.9,0-3.4,12.9-3.4,28.8c0,14.1,1.2,25.9,2.8,28.4v14.4
	c-1.8-0.9-3.5-1.7-4.9-2.5l-0.4-0.2c-0.6-0.3-1.2-0.6-1.9-1V61.1c1.6-2.5,2.8-14.2,2.8-28.4c0-15.9-1.5-28.8-3.4-28.8
	c-1.9,0-3.4,12.9-3.4,28.8c0,14.1,1.2,25.9,2.8,28.4v10.1c-4-1.9-8.9-3.8-14.7-4c-4.3-0.1-10.4,1.4-16.3,4.8
	c-0.4,0.2-0.8,0.5-1.2,0.7c-3.8,2.2-9,5.3-14.2,5.3c-5.6,0-9.8-1.2-13.9-4.2l-0.6-0.5c-5.2-4.1-12-6.3-19.7-6.3
	c-6.6,0-12.9,1.9-17.9,5.2l3.5,5.2c3.9-2.7,9-4.2,14.4-4.2c6.2,0,11.7,1.7,15.7,5l0.7,0.5l0.1,0.1c5.2,3.7,10.7,5.4,17.6,5.4
	c6.8,0,13.2-3.7,17.3-6.2c0.4-0.2,0.8-0.5,1.2-0.7c4.7-2.7,9.8-4,12.8-3.9c6.2,0.2,11.3,2.8,15.3,4.9l0.4,0.2
	c4.7,2.5,12.6,6.6,19.6,6.6c5.8,0,11.5-2.2,16.4-6.4L130.4,74.1z M118.3,95c-7,0-14.9-4.1-19.6-6.6l-0.4-0.2c-4-2.1-9.1-4.7-15.3-4.9c-3-0.1-8.1,1.2-12.8,3.9
		c-0.4,0.2-0.8,0.5-1.2,0.7C64.9,90.3,58.6,94,51.7,94c-7,0-12.4-1.7-17.6-5.4L34,88.6L33.3,88c-4.1-3.2-9.5-5-15.7-5
		c-5.3,0-10.4,1.5-14.4,4.2l-3.5-5.2c5-3.4,11.3-5.2,17.9-5.2c7.7,0,14.5,2.2,19.7,6.3l0.6,0.5c4.1,2.9,8.3,4.2,13.9,4.2
		c5.1,0,10.3-3.1,14.2-5.3c0.4-0.3,0.9-0.5,1.2-0.7c5.9-3.4,12-4.9,16.3-4.8c7.5,0.2,13.3,3.3,17.9,5.6l0.4,0.2
		c4.2,2.2,11.2,5.9,16.7,5.9c5.5,0,9.8-2.7,12.4-4.9l4,4.8C129.8,92.8,124.1,95,118.3,95z" fill="rgb(250, 73, 3)"/>
</svg>